<?xml version="1.0" encoding="UTF-8"?>
<svg id="Layer_2" data-name="Layer 2" xmlns="http://www.w3.org/2000/svg" viewBox="0 0 472.29 481.57">
  <g id="Layer_1-2" data-name="Layer 1">
    <g>
      <path d="M390.48,163.29c-25.4-14.8-54.65-22.19-87.77-22.19-26.06,0-50.01,6.08-71.87,18.21-14.77,8.21-27.35,18.45-38.09,30.38v-124.1C192.75,29.36,163.38,0,127.16,0v312c0,31.8,7.62,60.61,22.86,86.44,15.23,25.84,35.87,46.15,61.94,60.95,26.05,14.79,55.41,22.18,88.1,22.18s62.04-7.73,88.1-23.18c26.05-15.45,46.59-35.98,61.6-61.61,15.01-25.61,22.52-53.87,22.52-84.79,0-33.13-7.29-62.49-21.86-88.1-14.57-25.61-34.56-45.81-59.95-60.61ZM392.79,365.66c-9.27,16.34-21.97,29.48-38.09,39.42-16.13,9.94-34.34,14.9-54.65,14.9s-38.53-4.96-54.65-14.9c-16.12-9.94-28.93-23.07-38.42-39.42-9.5-16.33-14.24-34.45-14.24-54.32s4.74-37.42,14.24-53.99c9.49-16.56,22.29-29.69,38.42-39.41,16.12-9.71,34.33-14.57,54.65-14.57s38.53,4.86,54.65,14.57c16.11,9.71,28.81,22.85,38.09,39.41,9.28,16.56,13.91,34.56,13.91,53.99s-4.64,37.99-13.91,54.32Z"/>
      <path d="M0,0c0,51.05,41.38,92.43,92.43,92.43C92.43,41.38,51.05,0,0,0Z"/>
      <path d="M27.3,177.92c35.97,0,65.13-29.16,65.13-65.12-35.97,0-65.13,29.16-65.13,65.12Z"/>
    </g>
  </g>
</svg>