<?xml version="1.0" encoding="UTF-8"?>
<svg id="Layer_2" data-name="Layer 2" xmlns="http://www.w3.org/2000/svg" viewBox="0 0 1458.83 236.32">
  <defs>
    <style>
      .cls-1 {
        fill: #fff;
      }
    </style>
  </defs>
  <g id="Layer_1-2" data-name="Layer 1">
    <g>
      <rect class="cls-1" x="274.67" width="32.18" height="232.42"/>
      <path class="cls-1" d="M477.52,80.45c-12.79-7.47-27.2-11.21-43.23-11.21s-30.45,3.74-43.24,11.21c-12.79,7.48-22.97,17.5-30.56,30.07-7.59,12.57-11.38,26.55-11.38,41.94s3.79,29.42,11.38,42.09c7.58,12.68,17.77,22.81,30.56,30.4,12.78,7.58,27.19,11.38,43.24,11.38s30.18-3.79,43.07-11.38c12.89-7.58,23.02-17.72,30.39-30.4,7.37-12.68,11.05-26.71,11.05-42.09s-3.69-29.1-11.05-41.77c-7.37-12.68-17.45-22.76-30.23-30.24ZM479.79,179.28c-4.55,8.13-10.78,14.58-18.69,19.34-7.91,4.77-16.85,7.15-26.82,7.15s-18.91-2.39-26.82-7.15c-7.91-4.77-14.25-11.22-19.02-19.34-4.77-8.13-7.15-16.96-7.15-26.49s2.38-18.64,7.15-26.65c4.77-8.01,11.1-14.47,19.02-19.35,7.91-4.88,16.85-7.31,26.82-7.31s18.9,2.43,26.82,7.31c7.91,4.88,14.14,11.33,18.69,19.35,4.55,8.02,6.83,16.91,6.83,26.65s-2.28,18.37-6.83,26.49Z"/>
      <path class="cls-1" d="M673.2,80.45c-12.79-7.47-27.2-11.21-43.23-11.21s-30.45,3.74-43.24,11.21c-12.79,7.48-22.97,17.5-30.56,30.07-7.59,12.57-11.38,26.55-11.38,41.94s3.79,29.42,11.38,42.09c7.58,12.68,17.77,22.81,30.56,30.4,12.78,7.58,27.19,11.38,43.24,11.38s30.18-3.79,43.07-11.38c12.89-7.58,23.02-17.72,30.39-30.4,7.37-12.68,11.05-26.71,11.05-42.09s-3.69-29.1-11.05-41.77c-7.37-12.68-17.45-22.76-30.23-30.24ZM675.48,179.28c-4.55,8.13-10.78,14.58-18.69,19.34-7.91,4.77-16.85,7.15-26.82,7.15s-18.91-2.39-26.82-7.15c-7.91-4.77-14.25-11.22-19.02-19.34-4.77-8.13-7.15-16.96-7.15-26.49s2.38-18.64,7.15-26.65c4.77-8.01,11.1-14.47,19.02-19.35,7.91-4.88,16.85-7.31,26.82-7.31s18.9,2.43,26.82,7.31c7.91,4.88,14.14,11.33,18.69,19.35,4.55,8.02,6.83,16.91,6.83,26.65s-2.28,18.37-6.83,26.49Z"/>
      <path class="cls-1" d="M988.68,79.31c-10.95-7.15-24.44-10.72-40.47-10.72-12.57,0-23.68,2.6-33.32,7.8-9.64,5.2-17.23,12.35-22.76,21.45-2.18,3.59-3.84,7.45-5.23,11.48-1.35-4.02-3-7.89-5.17-11.48-5.53-9.11-13.22-16.26-23.08-21.45-9.86-5.2-21.51-7.8-34.94-7.8-15.82,0-29.21,3.57-40.15,10.72-10.95,7.15-19.18,16.8-24.7,28.93-5.53,12.14-8.29,25.68-8.29,40.63v83.54h32.18v-78.67c0-9.75,1.51-18.74,4.55-26.98,3.03-8.23,7.75-14.84,14.14-19.83,6.39-4.98,14.57-7.48,24.54-7.48s18.26,2.43,24.87,7.31c6.61,4.88,11.48,11.38,14.63,19.51,3.14,8.13,4.71,17.07,4.71,26.82v79.31h32.18v-79.31c0-9.75,1.63-18.69,4.88-26.82,3.25-8.13,8.13-14.63,14.63-19.51,6.5-4.88,14.52-7.31,24.05-7.31s18.26,2.49,24.87,7.48c6.61,4.99,11.48,11.6,14.63,19.83,3.14,8.24,4.71,17.23,4.71,26.98v78.67h32.18v-83.87c0-14.73-2.87-28.16-8.62-40.31-5.74-12.13-14.09-21.78-25.03-28.93Z"/>
      <path class="cls-1" d="M1152.09,151.98c-6.17-3.49-13.31-5.24-21.42-5.24h-15.82c-1.14,0-2.03-.2-2.68-.61-.65-.4-.97-1.01-.97-1.83,0-.97.4-1.83,1.22-2.55.81-.73,2.27-1.91,4.38-3.53l37.49-28.73c3.89-3.08,6.78-6.21,8.64-9.37,1.86-3.16,2.8-6.61,2.8-10.34,0-5.03-1.83-9.41-5.48-13.15-3.65-3.73-9.05-5.6-16.19-5.6h-77.42v14.61h77.42c1.95,0,3.49.49,4.63,1.46,1.13.97,1.7,2.35,1.7,4.14,0,1.63-.36,3.04-1.1,4.26-.73,1.21-1.99,2.47-3.77,3.77l-41.14,31.65c-2.6,1.95-4.55,4.18-5.84,6.69-1.3,2.52-1.95,5.24-1.95,8.15,0,3.57,1.3,6.9,3.89,9.99,2.59,3.08,6.41,4.62,11.44,4.62h12.17c10.06,0,17.97,2.4,23.74,7.18,5.76,4.79,8.64,11.72,8.64,20.81,0,6.5-1.79,12.26-5.36,17.29-3.57,5.03-8.24,8.93-14,11.68-5.76,2.76-12.05,4.14-18.87,4.14-10.06,0-18.62-2.23-25.68-6.69-7.06-4.46-12.46-10.67-16.19-18.63l-13.63,7.31c5.03,10.55,12.33,18.66,21.91,24.34,9.57,5.68,20.77,8.52,33.59,8.52,9.74,0,18.66-2.07,26.78-6.2,8.11-4.14,14.56-9.82,19.35-17.04,4.78-7.22,7.18-15.46,7.18-24.71,0-8.27-1.7-15.54-5.11-21.79-3.41-6.24-8.2-11.12-14.36-14.6Z"/>
      <path class="cls-1" d="M1282.21,132.74c-8.36-4.63-17.65-6.94-27.87-6.94-5.84,0-11.56.98-17.16,2.92-1.42.49-2.68,1.2-4.02,1.8l33.84-59.5h-17.77l-39.68,70.12c-3.74,6.82-6.9,13.51-9.5,20.08-2.6,6.57-3.89,13.43-3.89,20.57,0,10.22,2.47,19.48,7.43,27.75,4.95,8.28,11.72,14.81,20.33,19.6,8.6,4.79,18.26,7.18,28.97,7.18s20.33-2.47,28.85-7.42c8.52-4.95,15.29-11.64,20.33-20.08,5.03-8.44,7.55-18.02,7.55-28.73s-2.47-20.12-7.42-28.24c-4.95-8.11-11.61-14.48-19.96-19.11ZM1288.9,202c-3.74,6.17-8.76,11.04-15.09,14.61-6.33,3.57-13.31,5.36-20.94,5.36s-14.61-1.74-20.93-5.24c-6.33-3.49-11.36-8.23-15.09-14.24-3.73-6-5.6-12.9-5.6-20.69,0-6.81,1.7-13.39,5.11-19.72,3.41-6.33,8.24-11.57,14.49-15.7,6.24-4.14,13.59-6.2,22.03-6.2,7.63,0,14.61,1.78,20.94,5.35,6.33,3.57,11.36,8.44,15.09,14.61,3.73,6.17,5.6,13.15,5.6,20.94s-1.87,14.77-5.6,20.94Z"/>
      <path class="cls-1" d="M1454.32,119.47c-3.01-10.06-7.26-18.9-12.78-26.53-5.52-7.62-12.05-13.59-19.6-17.89-7.55-4.3-15.87-6.45-24.95-6.45s-17.45,2.15-25.08,6.45c-7.63,4.3-14.2,10.27-19.72,17.89-5.52,7.63-9.78,16.48-12.78,26.53-3,10.07-4.5,20.94-4.5,32.62s1.5,22.6,4.5,32.74c3,10.14,7.26,19.07,12.78,26.78,5.52,7.71,12.05,13.76,19.6,18.14,7.55,4.38,15.95,6.57,25.2,6.57s17.4-2.19,24.95-6.57c7.55-4.38,14.08-10.43,19.6-18.14,5.52-7.71,9.77-16.63,12.78-26.78,3-10.14,4.5-21.06,4.5-32.74s-1.5-22.55-4.5-32.62ZM1439.35,178.51c-2.27,8.2-5.48,15.46-9.62,21.79-4.14,6.33-8.97,11.28-14.48,14.85-5.52,3.57-11.61,5.35-18.26,5.35-8.93,0-16.84-3.08-23.74-9.25-6.9-6.17-12.34-14.44-16.31-24.83-3.98-10.38-5.97-21.83-5.97-34.33,0-9.41,1.13-18.22,3.41-26.41,2.27-8.19,5.52-15.42,9.74-21.67,4.22-6.24,9.13-11.12,14.73-14.61,5.6-3.49,11.64-5.24,18.14-5.24s12.78,1.75,18.38,5.24c5.6,3.49,10.43,8.36,14.48,14.61,4.06,6.25,7.22,13.47,9.5,21.67,2.27,8.19,3.41,17,3.41,26.41s-1.14,18.22-3.41,26.41Z"/>
      <g>
        <path class="cls-1" d="M191.62,80.13c-12.46-7.26-26.82-10.89-43.07-10.89-12.79,0-24.54,2.99-35.27,8.94-7.25,4.03-13.42,9.05-18.69,14.91v-60.9C94.59,14.41,80.18,0,62.4,0v153.11c0,15.6,3.74,29.74,11.22,42.42,7.48,12.68,17.6,22.65,30.39,29.91,12.78,7.26,27.19,10.89,43.23,10.89s30.45-3.79,43.24-11.38c12.78-7.58,22.86-17.66,30.23-30.23,7.36-12.57,11.05-26.44,11.05-41.61,0-16.26-3.58-30.66-10.73-43.24-7.15-12.57-16.96-22.48-29.42-29.74ZM192.76,179.44c-4.55,8.02-10.78,14.47-18.69,19.34-7.91,4.88-16.85,7.31-26.82,7.31s-18.91-2.43-26.82-7.31c-7.91-4.88-14.2-11.32-18.85-19.34-4.66-8.01-6.99-16.9-6.99-26.66s2.33-18.36,6.99-26.49c4.66-8.13,10.94-14.57,18.85-19.34,7.91-4.77,16.85-7.15,26.82-7.15s18.91,2.39,26.82,7.15c7.91,4.77,14.14,11.21,18.69,19.34,4.55,8.13,6.83,16.96,6.83,26.49s-2.28,18.64-6.83,26.66Z"/>
        <path fill="#f26a6c" d="M0,0c0,25.05,20.31,45.36,45.36,45.36C45.36,20.31,25.05,0,0,0Z"/>
        <path fill="#f26a6c" d="M13.4,87.31c17.65,0,31.96-14.31,31.96-31.96-17.65,0-31.96,14.31-31.96,31.96Z"/>
      </g>
    </g>
  </g>
</svg>